# xmcd
#
# Track frame offsets:
# 150
# 16443
# 34689
# 59344
# 80528
# 103617
# 124544
# 147402
# 167323
# 185858
#
# Disc length: 2718 seconds
#
#
# Revision: 0
# Processed by: cddbd v1.5.1PL0 Copyright (c) Steve Scherf et al.
# Submitted via: FreeRIP 2.941 
#
DISCID=810a9c0a
DTITLE=The Kelly Bowlin Band - Williamsburg
DYEAR=1900
DGENRE=Bluegrass
TTITLE0=Kentucky Angel
TTITLE1=Falling
TTITLE2=Paper Wings
TTITLE3=Have it all
TTITLE4=Williamsburg
TTITLE5=Copperhead Road
TTITLE6=Judas Kiss
TTITLE7=I'll Wait
TTITLE8=Why Can't I
TTITLE9=Final Note
EXTD=
EXTT0=
EXTT1=
EXTT2=
EXTT3=
EXTT4=
EXTT5=
EXTT6=
EXTT7=
EXTT8=
EXTT9=
PLAYORDER=
